# xmcd
#
# Track frame offsets:
#	150
#	11449
#	25389
#	35309
#	47529
#	60190
#	70333
#	82093
#	96803
#	109127
#
# Disc length: 1602 seconds
# Revision: 0
# Processed by: cddbd v1.5.1PL0 Copyright (c) Steve Scherf et al.
# Submitted via: cdrLabel 7.1
#
DISCID=7506400a
DTITLE=Herb Alpert - Summertime
DYEAR=1900
DGENRE=
TTITLE0=Hurts So Bad
TTITLE1=Catch A Falling Star
TTITLE2=Martha My Dear
TTITLE3=If You Could Read My Mind
TTITLE4=Darlin'
TTITLE5=Summertime
TTITLE6=Jerusalem
TTITLE7=The Nicest Things Happen
TTITLE8=Montezuma's Revenge
TTITLE9=Strike Up the Band
EXTD=
EXTT0=
EXTT1=
EXTT2=
EXTT3=
EXTT4=
EXTT5=
EXTT6=
EXTT7=
EXTT8=
EXTT9=
PLAYORDER=
